# xmcd
#
# Track frame offsets: 
#        150
#        11842
#        23176
#        35466
#        48250
#        62781
#        73254
#        87727
#        102974
#        129683
#        140676
#        151070
#        163769
#        175148
#        190573
#
# Disc length: 2776 seconds
#
# Revision: 0
# Processed by: cddbd v1.5.2PL0 Copyright (c) Steve Scherf et al.
# Submitted via: ExactAudioCopy v0.99pb4
#
DISCID=d00ad60f
DTITLE=Ray Charles - The Legend lives on - CD 3
DYEAR=2008
DGENRE=Blues
TTITLE0=Hallelujah, I love her so
TTITLE1=Confession Blues
TTITLE2=It should've been me
TTITLE3=Greenbacks
TTITLE4=Funny ( But I still love you )
TTITLE5=Swanee River Rock ( Talkin' 'bout that River )
TTITLE6=Losing Hand
TTITLE7=Sinner's Prayer
TTITLE8=Doodlin' (instr.)
TTITLE9=A sentimental Blues
TTITLE10=Get on the right Track
TTITLE11=Can anyone ask for more ?
TTITLE12=She's on the Ball
TTITLE13=Georgia on my Mind ( Live with Gladys Knight )
TTITLE14=I can see clearly now
EXTD=
EXTT0=
EXTT1=
EXTT2=
EXTT3=
EXTT4=
EXTT5=
EXTT6=
EXTT7=
EXTT8=
EXTT9=
EXTT10=
EXTT11=
EXTT12=
EXTT13=
EXTT14=
PLAYORDER=
